<svg version="1.2" baseProfile="tiny-ps" xmlns="http://www.w3.org/2000/svg" viewBox="0 0 120 70" width="120" height="70">
	<title>Codar</title>
	<style>
		tspan { white-space:pre }
	</style>
	<path id="Codar. " fill="#d6000d" aria-label="Codar."  d="M20 40.84L26.11 40.8Q25.76 43.97 23.95 46.42Q22.15 48.86 19.25 50.18Q16.35 51.48 12.99 51.42Q9.97 51.36 7.72 50.03Q5.47 48.69 4.17 46.17Q2.89 43.63 2.72 40.33Q2.58 37.75 3.25 33.91Q3.94 30.07 5.68 27.09Q7.45 24.1 9.86 22.36Q13.26 19.93 17.63 20.01Q22.38 20.09 25.15 22.95Q27.94 25.78 28.21 30.84L22.08 30.82Q22.08 27.93 20.93 26.58Q19.77 25.24 17.34 25.15Q14.19 25.05 12.15 27.4Q10.14 29.75 9.44 34.27Q8.77 38.65 8.85 40.84Q8.96 43.61 10.09 44.93Q11.23 46.23 13.26 46.3Q16.08 46.4 17.76 44.97Q19.46 43.53 20 40.84ZM41.31 27.86Q44.32 27.9 46.48 29.42Q48.66 30.91 49.67 33.55Q50.7 36.18 50.41 39.39Q49.92 44.81 46.63 48.17Q43.35 51.5 38.52 51.42Q35.56 51.38 33.4 49.91Q31.24 48.42 30.21 45.79Q29.18 43.17 29.47 40Q30.02 34.37 33.29 31.05Q36.57 27.74 41.31 27.86ZM35.33 42.16Q35.37 44.18 36.28 45.35Q37.18 46.51 38.82 46.55Q41.55 46.63 43.1 44.05Q44.65 41.45 44.55 37.23Q44.46 35.21 43.56 34.01Q42.68 32.8 41.02 32.75Q38.38 32.67 36.78 35.25Q35.2 37.81 35.33 42.16ZM63.38 27.84Q66.55 27.93 68.5 30.38L70.73 18.75L76.67 18.75L71.09 51L65.8 51L66.13 48.56Q63.59 51.52 60.21 51.44Q58.09 51.42 56.49 50.33Q54.9 49.24 54.02 47.2Q53.16 45.14 53.07 42.62Q53.01 41.3 53.14 40.06L53.26 39.12Q53.77 35.63 55.19 32.99Q56.64 30.34 58.72 29.06Q60.82 27.78 63.38 27.84ZM59.08 40.06Q58.91 41.66 58.97 42.75Q59.18 46.44 61.95 46.51Q64.45 46.61 66.3 44.16L67.92 35.13Q67.1 32.88 64.64 32.78Q62.48 32.71 61.03 34.46Q59.6 36.18 59.08 40.06ZM94.77 51L88.95 51Q88.68 50.14 88.72 48.94Q86.16 51.5 82.93 51.42Q79.95 51.38 77.97 49.49Q76.02 47.58 76.15 44.79Q76.29 41.07 79.25 39.1Q82.24 37.1 87.23 37.1L90 37.14L90.3 35.78Q90.42 35.08 90.36 34.46Q90.26 33.47 89.61 32.92Q88.98 32.36 87.93 32.33Q86.54 32.29 85.57 33.03Q84.61 33.74 84.34 35.11L78.39 35.13Q78.54 31.87 81.38 29.86Q84.23 27.82 88.41 27.86Q92.27 27.95 94.46 30.17Q96.64 32.38 96.28 35.86L94.54 46.74L94.43 48.08Q94.39 49.57 94.79 50.6L94.77 51ZM84.4 46.82Q86.96 46.91 88.87 44.6L89.61 40.67L87.55 40.65Q84.27 40.73 82.82 42.64Q82.3 43.34 82.17 44.34Q82 45.48 82.63 46.15Q83.29 46.8 84.4 46.82ZM114.7 28.11L113.94 33.97Q112.72 33.76 111.95 33.76Q108.77 33.68 106.93 36.13L104.3 51L98.38 51L102.33 28.28L107.89 28.26L107.35 31.03Q109.49 27.82 112.64 27.82Q113.52 27.82 114.7 28.11Z" />
	<path id="Codar. " fill="#000000" aria-label="Codar."  d="M114.32 44.74Q115.72 44.7 116.71 45.63Q117.72 46.53 117.72 47.91Q117.76 49.3 116.8 50.29Q115.83 51.25 114.42 51.25Q113.02 51.29 112.05 50.41Q111.08 49.53 111.04 48.12Q111 46.72 111.95 45.75Q112.89 44.79 114.32 44.74Z" />
</svg>